# xmcd
#
# Track frame offsets:
#	150
#	14073
#	34596
#	54819
#	70992
#	88440
#	109638
#	130311
#	150759
#	167907
#	184305
#	201828
#	218601
#	239424
#	257097
#
# Disc length: 3627 seconds
#
# Revision: 0
# Processed by: cddbd v1.5.2PL0 Copyright (c) Steve Scherf et al.
# Submitted via: EasyCDDAExtractor 12.0.7.1
#
DISCID=cf0e290f
DTITLE=Gianna Nannini - Giannabest - Cd2
DYEAR=1900
DGENRE=
TTITLE0=Meravigliosa Creatura
TTITLE1=Io
TTITLE2=Fotoromanza
TTITLE3=Ragazzo Dell'europa
TTITLE4=Profumo
TTITLE5=Bello E Impossibile
TTITLE6=Latin Lover
TTITLE7=I Maschi
TTITLE8=Aria
TTITLE9=Amandoti
TTITLE10=Elisir
TTITLE11=Notti Senza Cuore
TTITLE12=Alla Fine
TTITLE13=Un Desiderio
TTITLE14=Una Luce
EXTD=
EXTT0=
EXTT1=
EXTT2=
EXTT3=
EXTT4=
EXTT5=
EXTT6=
EXTT7=
EXTT8=
EXTT9=
EXTT10=
EXTT11=
EXTT12=
EXTT13=
EXTT14=
PLAYORDER=
